<?xml version="1.0" encoding="utf-8"?>
<!-- Generator: Adobe Illustrator 24.0.2, SVG Export Plug-In . SVG Version: 6.00 Build 0)  -->
<svg version="1.1" id="Capa_1" xmlns="http://www.w3.org/2000/svg" xmlns:xlink="http://www.w3.org/1999/xlink" x="0px" y="0px"
	 viewBox="0 0 855.5 681.8" style="enable-background:new 0 0 855.5 681.8;" xml:space="preserve">
<style type="text/css">
	.st0{fill:#2F2E41;}
	.st1{fill:#FFB6B6;}
	.st2{opacity:0.1;enable-background:new    ;}
	.st3{fill:#6C8BA5;}
	.st4{fill:#FFFFFF;}
	.st5{fill:#3F3D56;}
	.st6{fill:#CCCCCC;}
</style>
<path class="st0" d="M571.6,151.4c-0.1,0-0.3,0.1-0.5,0.1c-4.5,0.7-31.4,4.9-58.5-5.4c-11.5-4.4-5.8,25.6-31.4,10.4
	c-24.1-39.3-24.8-51.4-27-59.7c-4.5-16.6,4.7-40.2,20.5-38.4c4.2,0.5,8.6,2.9,15.5,1.2c1.5-0.4,8.2-2,11.4-7.5
	c2.9-4.9,0.4-8.5,1.6-12.5c3.1-10.6,28.5-15.9,50.8-12.1c12.8,2.1,22.8,8,42.3,19.6c33.9,20.2,50.8,30.3,54.6,45.8
	c3.6,14.7-7.2,13.1-0.9,28.8c5.9,14.6,35.4,0,32.2,31.4c-2,25-32.7,18.3-40.7,27c-8.7,9.6-10.1,38.6-21.1,45.5
	c-2.5,3.6,0.7-37.3-28.2-22.7c-15,6.1-58.9,21.4-89.9-26.8c3.3-6.2,68,0.4,68.9-3.1"/>
<polygon class="st1" points="592,217.7 621.9,271.1 517.3,278.2 531.1,217.4 "/>
<polygon class="st2" points="592,217.7 621.9,271.1 517.3,278.2 531.1,217.4 "/>
<path class="st3" d="M500.8,233.1l144-1.9l64,30.9l-3,225l67,127l-338-64l32.9-84.2c2.9-7.5,4-15.6,3.1-23.6l-21.9-190.1
	L500.8,233.1z"/>
<path class="st4" d="M3.9,670.2c-4.6-7.2-5.1-16.2-1.5-24l54.8-115.2c4.1-8.6,12.9-14.1,22.4-14.1h692.3c9.3,0,17.7,5.1,22,13.3
	l58.7,112c4.1,7.7,3.8,16.8-0.7,24.3c-4.5,7.5-12.4,12-21.2,12l-805.8,3.2h-0.1C16.3,681.8,8.5,677.5,3.9,670.2L3.9,670.2z"/>
<path class="st5" d="M3.9,670.2c-4.6-7.2-5.1-16.2-1.5-24l54.8-115.2c4.1-8.6,12.9-14.1,22.4-14.1h692.3c9.3,0,17.7,5.1,22,13.3
	l58.7,112c4.1,7.7,3.8,16.8-0.7,24.3c-4.5,7.5-12.4,12-21.2,12l-805.8,3.2h-0.1C16.3,681.8,8.5,677.5,3.9,670.2L3.9,670.2z
	 M79.6,519.6c-8.5,0-16.4,5-20.1,12.7L4.8,647.4c-3.3,6.9-2.8,15,1.3,21.4c4.1,6.5,11.1,10.3,18.7,10.3h0.1l805.8-3.2
	c7.8,0,14.9-4.1,18.9-10.8c4-6.7,4.3-14.8,0.6-21.8l-58.7-112c-3.8-7.3-11.4-11.9-19.7-11.9L79.6,519.6L79.6,519.6z"/>
<path class="st5" d="M707.4,637.7l-285.7-19.6c-4.2-0.3-7.6-3.1-8.6-7.2c-1-4.1,0.7-8.2,4.3-10.3l63.2-37.9c1.6-1,3.4-1.4,5.3-1.3
	l247.1,11.2c3.3,0.1,6.2,1.9,7.8,4.8c1.6,2.8,1.7,6.3,0.1,9.1l-24.6,46.3c-1.7,3.1-4.9,5-8.4,5C707.9,637.8,707.7,637.7,707.4,637.7
	z"/>
<polygon class="st4" points="419.3,606.6 703.8,626.1 726.3,577.6 482.3,568.1 "/>
<circle class="st1" cx="559.3" cy="124.7" r="85.5"/>
<path class="st0" d="M617.4,233.9c2.8,5.7,5.9,11.3,9.2,16.7c2,3.2,4,6.5,6.6,9.3c8.7,9.8,12-5.3,13.5-12.9
	c6.7-34,6.7-69,11.2-103.4c1.8-13.5,6.2-26.2,7.6-41c1-10.6-0.4-21-2.9-31.5c-3.8-15.5-9.2-30.7-43-50.9
	C600.1,8.7,578.4,3.9,563.7,4.5c-22.6,0.9-48,13-61.5,20.6c-9,5.1-42.4,25.4-42,50.4c0.1,8.6,4.3,10.9,34.3,28.7
	c25.6,15.2,29.9,17.6,41.6,21.4c20.8,6.7,45.7,5.5,50.1,4.8c0.2,0,0.4-0.1,0.5-0.1c2.1-0.4,13.1,54.7,14.7,60.8
	C605.3,205.8,610.7,220.2,617.4,233.9z"/>
<path class="st3" d="M645.4,583.2c5.5,0.2,9.7,5.1,10,10.5c0.3,5.5-3.5,10.6-8.2,13.3c-5.4,3.1-12.2,3.6-18.3,3.1
	c-5.5-0.5-11.5-2.2-15-6.7c-3-3.8-4.1-9.6-1.5-13.9c2.5-4.3,7.8-5.5,12.3-3.8c4.7,1.8,7.7,6.1,7.7,11.2c0,5.6-3.2,10.8-7.8,13.9
	c-4.9,3.4-11.1,4.4-17,4.4c-6.4,0-12.7-1.4-18.6-3.8c-5.5-2.3-11-5.7-14.9-10.2c-3.7-4.3-5.9-10.2-3.8-15.8c1.7-4.5,5.9-7.3,10.8-7
	c4.4,0.4,8.9,2.9,10.9,7c2.2,4.6,1.2,10.2-1.6,14.3c-3.3,4.8-8.4,7.5-14.2,7.9c-6.1,0.4-12.2-1.8-17.2-5.1
	c-4.7-3.1-8.7-7.1-13.7-9.7c-2.4-1.2-5-2-7.7-2c-3.5,0-6.8,1.1-10.2,1.8c-2.9,0.6-5.8,0.9-8.6,0c-2.4-0.8-4.7-2.2-6.2-4.3
	c-1.4-1.9-1.9-4.4-1.1-6.7c0.6-1.8,3.5-1,2.9,0.8c-1.5,4.2,3.6,7.3,7.2,7.7c2.7,0.3,5.5-0.5,8.1-1.1c2.7-0.6,5.5-1.3,8.3-1.2
	c10,0.2,16.6,8.8,24.6,13.4c8.5,4.9,20.9,5.2,26.1-4.5c1.9-3.5,2.3-8.2-0.3-11.5c-2.2-2.7-6-4.4-9.5-3.8c-4.4,0.7-6.5,4.8-6.4,8.9
	c0.2,5.1,3.7,9.2,7.5,12.2c8.4,6.7,19.4,10.2,30.1,9.6c5-0.3,10.3-1.6,14.2-4.9c3.4-2.9,5.7-7.6,4.9-12.1c-0.7-3.9-4-6.8-7.9-7.2
	c-4-0.4-7.2,2.5-7.4,6.5c-0.2,4.5,2.5,8.3,6.4,10.4c4.4,2.3,9.8,2.6,14.7,2.4c5.2-0.3,10.6-1.6,14.3-5.6c3.1-3.4,4.3-8.4,1.4-12.3
	c-1.3-1.7-3.2-2.9-5.3-3C643.5,586.1,643.5,583.1,645.4,583.2L645.4,583.2L645.4,583.2z"/>
<path class="st5" d="M508.7,580l1.5-9.5l84.9-162.2c1.4-2.7,4.7-3.7,7.4-2.3c2.7,1.4,3.7,4.7,2.3,7.4L520,575.6l-6.9,6.7
	c-0.8,0.8-2,1-3,0.4C509,582.2,508.5,581.1,508.7,580L508.7,580z"/>
<path class="st1" d="M566.5,476.8c9.6,1.8,18.6,5.9,26.3,11.9l0.4,0.1l0.1-0.4l92.5,14.5l-6.7-123l70.1-38.4l-16.6,208
	c-3.6,13.3-17.4,21-30.6,17.2l-117.8-33.9l0.3-1.4l-0.4-0.1c-9.4,2.5-19.3,2.8-28.8,0.7c-23.9-4.8-40.8-21.1-37.7-36.3
	C520.8,480.4,542.6,471.9,566.5,476.8L566.5,476.8z"/>
<path class="st3" d="M629.8,284.1l79-22c0,0,41.5,30.5,46.5,63.5c0.6,3.9,2.2,186.7,0.5,191.5c-12.9,35.2-84-21-84-21L629.8,284.1
	L629.8,284.1z"/>
<path class="st5" d="M287.1,612.7l-8.2-7h0c-1.2-1-2.7-1.7-4.3-2L92.2,573.3c-4.2-0.7-7.2-3.7-8-7.9c-0.8-4.1,1-8.1,4.6-10.2
	l65.1-39.1c2.2-1.3,4.7-1.7,7.2-1.2l231.4,52.3c4.5,1,7.5,4.7,7.6,9.3s-2.6,8.4-7,9.7l-96.7,28.5c-0.9,0.3-1.9,0.4-2.8,0.4
	C291.2,615.1,288.9,614.3,287.1,612.7z"/>
<path class="st1" d="M199.2,385.9c9,3.6,17.1,9.4,23.5,16.7l0.4,0.2l0.2-0.4l87.9,32.1l93.9-152l51.9,32.2L348.2,489.2
	c-6.1,12.3-21.1,17.3-33.3,11l-109-56l0.6-1.4l-0.4-0.2c-9.7,0.7-19.5-1-28.4-4.9c-22.5-9.4-35.9-28.6-30-42.9
	C153.6,380.5,176.7,376.5,199.2,385.9L199.2,385.9z"/>
<path class="st3" d="M505.9,309.9l-41.5-62.1c0,0-49.4,9.8-69.8,36.2c-2.5,3.3-90,130.1-90.5,135.6c-3.9,38.7,96.5,56.9,96.5,56.9
	L505.9,309.9L505.9,309.9z"/>
<path class="st5" d="M282.6,614.6L73.4,585.7c-7-1-12.8-6-14.7-12.8l-48-168.2C9,399,10.2,393.1,14,388.6s9.3-7,15.2-6.5l210.8,16.1
	c7.6,0.6,14,6,15.9,13.4l46.5,180.9c1.5,5.8,0,11.9-4,16.3c-3.4,3.8-8.3,6-13.3,6C284.2,614.8,283.4,614.7,282.6,614.6z"/>
<path class="st6" d="M236,270.2c1.2,1.3,5.7,0,14.5-2.8c6.7-2.1,7.7-2.9,8.4-3.5c2.2-1.9,2.8-4,5.1-13.1c4-16.3,4.1-17.9,6.2-21.3
	c0.7-1.2,2.5-4,2.1-4.4c-0.4-0.4-2.4,2.6-5.9,3.7c-3.5,1.1-5-0.7-8-0.2c-3.8,0.6-6.1,4.2-9.7,10.1c-3.2,5.2-3.6,7.3-8,17.7
	c-1.3,2.9-2.3,5.2-3,7c-8.7,8.1-17.4,16.4-25.9,24.7c0.2-0.3,0.3-0.5,0.5-0.7c3.8-5.8,4.3-8.9,4.3-11.3c-0.1-3.8-1.9-6.7-5.5-12.3
	c-3.5-5.5-6.9-9.1-10.9-13.5c-5.3-5.7-8-8.5-9-8.3c-7.5,1.3-9.6,52.7-0.1,61.9c-1.3,1-2.4,1.9-3.2,2.9c-8.1-9-22-19.1-37.5-20.3
	c-9.5-0.8-14.7,2.2-16.4,3.2c-7.5,4.7-12,14.2-9.8,16.9c2.1,2.5,8.2-3.2,20-2.9c8.3,0.2,14.8,3.2,18.6,5c8.1,3.7,11,7.4,17,10
	c-2.8,2.3-5,5.2-6.4,7.8c-0.5,0.5-1,1-1.4,1.5c-6.1-3.5-13-6-20.3-6.6c-9.5-0.8-14.7,2.2-16.4,3.2c-5.1,3.2-8.8,8.5-9.9,12.5
	c-0.8,0.2-1.5,0.3-2.1,0.5c-2.3-5.2-9.2-10.7-15.5-13.5c-11-4.8-25.2-3.5-26.7,1c0,0.1-0.1,0.3-0.1,0.4c1.2-9.7,2.8-19.3,4.9-28.9
	c0.1,0.3,0.2,0.5,0.3,0.8c2.7,6.8,10,13.3,20,16.7c7.8,2.7,11.1,1.3,11.9,0.9c0.8-0.4,4.2-1.8,5.1-4.8c1.6-5.4-8-21.5-14-16.1
	c-19.4,17.3-22,3.3-22.9,0.9c1.6-7.6,3.5-15.1,5.7-22.6c0,0,0.1,0.1,0.1,0.1c4.2,5.1,12.4,8.8,22,8.9c7.5,0.1,10-2,10.6-2.5
	c0.6-0.5,3.2-2.8,3.1-5.5c-0.2-5.1-9.3-9.3-16.6-10.1c-6.7-0.7-14,1.4-17.6,4c1.7-5.6,3.5-11.2,5.4-16.7c4.9,2,11.9,1.7,18.7-1.3
	c5.6-2.5,6.7-4.9,7-5.6c0.2-0.6,1.4-3.2,0.4-5.2c-1.9-3.8-10.2-3.7-15.9-1.7c-2.4,0.8-4.6,2.1-6.5,3.5c3.4-9.1,7.1-18.1,11.1-27.1
	l-4-1c-5.1,11.5-9.5,23.1-13.4,34.8c-0.5-3.4-1.7-7.1-3.2-10.1c-4.6-8.8-14.5-15.3-17.8-13.2c-0.7,0.4-0.9,1.1-1.2,1.9
	c-2,6.7-0.5,15.8,4.9,24.3c4.2,6.6,7.5,7.6,8.3,7.8c0.7,0.2,3.5,0.9,5.7,0c-1.5,5.2-2.9,10.5-4.2,15.7c-1.5-3.8-4.6-7.9-7.8-10.8
	c-7.4-6.5-19-9.1-21.3-6c-0.5,0.6-0.5,1.4-0.4,2.2c0.5,6.9,5.2,15,13.2,20.9c6.3,4.7,9.7,4.4,10.5,4.3c0.5-0.1,2-0.2,3.5-0.9
	c-1.4,6.4-2.6,12.8-3.6,19.3c-2.1-7.2-9.2-16.2-15.8-13.4c-11.8,5.1-25.8-2.7-27.3,0.7c-0.4,0.9-0.1,1.8,0.3,2.8
	c3.1,8,11.5,15.8,23.2,19.9c9.1,3.2,13,1.7,14,1.2c0.7-0.3,2.8-1.2,4.4-2.9c-1.2,8.3-2,16.7-2.7,25c-2.5-5.4-9.4-11.1-15.9-14
	c-11.4-5.1-26.4-4-28,0.7c-0.3,0.9-0.1,1.9,0.3,2.9c3.1,8.2,11.8,16.2,23.8,20.4c9.4,3.3,13.3,1.7,14.3,1.3c0.7-0.3,3.3-1.4,5-3.5
	c-0.2,3.9-0.4,7.8-0.5,11.6c0,1.1,0,2.2-0.1,3.3c-0.1,0.2-0.3,0.4-0.3,0.7c-0.3,1-0.1,1.9,0.3,2.9c0,0.7,0,1.4,0,2.1
	c-2.1-1.9-4.6-4.7-7.6-8.8c-2.7-3.7-5.3-1-6.9,2.1c-2.6-0.6-5.1-0.2-7,1.6c-13,12.2-27.6,5.7-27.8,9.3c-0.1,1,0.5,1.9,1.2,2.8
	c5.7,7.3,16.8,12.6,30.1,13.1c10.4,0.4,13.9-2.4,14.7-3.1c0.3-0.3,1-0.8,1.7-1.7c0.6,0.5,1.2,0.9,1.8,1.3c0.2,7,0.6,13.9,1.2,20.9
	c-0.5,0-1,0.1-1.3,0.2c-5,0.5-6.7-6.3-14.3-8.8c-2.5-0.8-7.4-1.7-10,0c-0.4,0.2-1.6,1.2-3.6,2c-1.2,0.5-2,0.7-2.4,0.8
	c-3.1,0.9-6,3.2-8,4.8c-3.7,3-5.5,4.5-6.4,7.2c-0.3,0.9-1,3.2,0,5.6c0.5,1.1,1.6,2.7,6,4.4c2.6,1,10.1,3.8,19.1,0.8
	c2-0.7,0.5-0.4,8.4-4.4c6.2-3.1,9.8-4.6,10.4-7.6c0.2-1.1,0-2.3,0.8-2.8c0.4-0.3,1-0.1,1.5,0.1c0.5,5.6,1.2,11.1,2,16.7h-7.1
	c-9.4,0-17.9,5.2-22.1,13.7l-26.6,53.6c-1.7,3.4-2.6,7.2-2.6,10.9v137.7c0,13.6,11,24.6,24.6,24.6h62c13.6,0,24.6-11,24.6-24.6
	V510.4c0-3.1-0.6-6.1-1.7-9l-25.3-64.5c-3.1-7.8-9.7-13.4-17.7-15.1c2.5-3,5.1-6,7.7-9c3.2,1.6,6.8,2.8,10.6,3.7
	c10.1,2.4,14.1,0.3,15.1-0.3c1-0.6,5.1-2.8,5.8-6.6c0.1-0.4,0.1-0.8,0.1-1.2c10.4,8.4,15.8,12.6,19.8,11.2c3.4-1.2,5.3-5.1,6.5-8.6
	c1.2,0.2,2.4,0.3,3.7,0.5c14.2,1.9,21.4,2.8,24.1-0.6c3.8-4.7,0.2-13.6-0.8-16.1c-2.2-5.4-5.5-8.7-7.5-10.7
	c-2.7-2.6-10.3-10-22.3-10.9c-2.6-0.2-5,0-7.3,0.5c-0.8-0.8-1.7-1.5-2.7-2.2c-1.8-1.4-3.7-2.4-5.6-3.1c3-3.3,6-6.6,9-9.8
	c0.5,0.2,0.9,0.4,1.4,0.6c9.9,4.6,12.1,9.1,21.6,11.5c4.3,1.1,9.2,2.3,10.4,0.5c2.2-3.3-7-16.7-21.1-25.7c1-1,1.9-2,2.9-3
	c1.3,0.5,2.4,1.1,3.4,1.5c9.9,4.6,12.1,9.1,21.6,11.5c4.3,1.1,9.2,2.3,10.4,0.5c1.9-2.9-5.2-13.9-16.7-22.7c3.2-1,7.4-2.1,12.9-2
	c8.3,0.2,14.8,3.2,18.6,5c9.9,4.6,12.1,9.1,21.6,11.5c4.3,1.1,9.2,2.3,10.4,0.5c3.2-4.8-18.6-32.1-44.6-34.2c-2-0.2-3.8-0.1-5.5,0
	c-0.2-0.4-0.5-0.8-0.7-1.2c8.8,0.3,26-2.2,40.6,8c4.2,3,12.4,9.9,26.1,15.7c4.4,1.8,6.6,2.7,7.2,2c2.2-2.7-15.9-24.8-41.3-35.7
	c-10.1-4.3-16.3-4.7-20.8-4.1c0.7-0.8,1.3-1.6,2-2.4c9.9-9.7,19.9-19.3,30.1-28.8C235.4,268.8,235.4,269.6,236,270.2L236,270.2z
	 M108.9,391.1c-11.2-3.6-24.7-1.7-28.3,2.4c-0.5-3.7-0.9-7.3-1.3-11c5.1,2.8,10.4,3.6,20.5,5c4.3,0.6,7.9,1.1,11,1.4
	c0.4,1.1,0.9,2.1,1.4,3.1c0.1,0.1,0.1,0.2,0.2,0.3l-0.1,0.1C111.1,391.9,110,391.4,108.9,391.1z M79.1,342c0.3-1.1,0.3-2.2,0.1-3.3
	c0.3-4.2,0.8-8.4,1.3-12.6c0,0.6,0.2,1.3,0.5,2c3.1,7.8,11.5,15.3,23,19.2c2.1,0.7,4,1.2,5.5,1.5c-0.7,1.2-1.2,2.4-1.6,3.5
	c-3.9-3.1-8.9-5.4-14.6-3c-1.6,0.7-2.5,3.1-3.3,5.9c-5.3,0.1-9.7,1.2-11.8,3.1c0-0.8,0-1.6,0-2.3c0.1-4.4,0.3-8.8,0.6-13.2
	C79,342.4,79.1,342.2,79.1,342z M78.3,364.8c0.2,0.5,0.5,0.9,0.7,1.4c-0.2-0.2-0.5-0.4-0.7-0.6C78.3,365.3,78.3,365.1,78.3,364.8z
	 M87.2,421.5c-0.6-0.1-1.2-0.1-1.9-0.2c-1.4-7.2-2.8-14.3-3.9-21.5c2.9,4.7,7.7,8.9,13.8,12.1C92.6,415.1,89.9,418.3,87.2,421.5
	L87.2,421.5z M134.5,367.6c-3.8-1.2-8.3-1.8-14.5-2.5c-1.6-2.2-3.2-3.8-4.4-4.9c-0.6-0.6-1.6-1.9-2.9-3.3c3.3-1.1,8.3-3,15.4-2.8
	c6.4,0.2,11.7,2,15.6,3.6C140.6,361,137.5,364.3,134.5,367.6z M156.1,344.3c-3.7-2.3-7.8-4.2-12.1-5.6c0.4,0,0.8,0,1.3,0
	c5.3,0.1,9.9,1.4,13.5,2.8C157.8,342.5,157,343.4,156.1,344.3z"/>
</svg>
